PathFileType	4	(X/Y/Z)	 s08c0402.trc
DataRate	CameraRate	NumFrames	NumMarkers	Units	OrigDataRate	OrigDataStartFrame	OrigNumFrames
200	200	4	50	mm	200	1	2000
Frame#	Time	racr			lacr			c7			jug			rlel			rdr			llel			ldr			s2			lic			ric			lasi			rasi			rpsi			lpsi			rgt			lgt			rth1			rth2			rth3			rth4			rlfc			rmfc			rsh1			rsh2			rsh3			rsh4			rlmal			rmmal			rcal			rtoe			rmt5			lth1			lth2			lth4			lth3			llfc			lmfc			llmal			lmmal			lcal			lmt5			lsh1			lsh2			lsh3			lsh4			ltoe			SBIKE			LBIKE			RBIKE			
		X1	Y1	Z1	X2	Y2	Z2	X3	Y3	Z3	X4	Y4	Z4	X5	Y5	Z5	X6	Y6	Z6	X7	Y7	Z7	X8	Y8	Z8	X9	Y9	Z9	X10	Y10	Z10	X11	Y11	Z11	X12	Y12	Z12	X13	Y13	Z13	X14	Y14	Z14	X15	Y15	Z15	X16	Y16	Z16	X17	Y17	Z17	X18	Y18	Z18	X19	Y19	Z19	X20	Y20	Z20	X21	Y21	Z21	X22	Y22	Z22	X23	Y23	Z23	X24	Y24	Z24	X25	Y25	Z25	X26	Y26	Z26	X27	Y27	Z27	X28	Y28	Z28	X29	Y29	Z29	X30	Y30	Z30	X31	Y31	Z31	X32	Y32	Z32	X33	Y33	Z33	X34	Y34	Z34	X35	Y35	Z35	X36	Y36	Z36	X37	Y37	Z37	X38	Y38	Z38	X39	Y39	Z39	X40	Y40	Z40	X41	Y41	Z41	X42	Y42	Z42	X43	Y43	Z43	X44	Y44	Z44	X45	Y45	Z45	X46	Y46	Z46	X47	Y47	Z47	X48	Y48	Z48	X49	Y49	Z49	X50	Y50	Z50	
1	0.0050	508.716395	1391.899657	-40.664833	539.222897	1404.561954	-423.127027	504.071328	1471.718840	-226.168222	486.395227	1317.049417	-220.514655	551.092533	1132.709282	17.718818	784.499224	938.283797	-45.423966	579.654370	1139.345722	-483.399533	787.023188	938.305238	-418.932903	-20.747026	1200.130175	-240.113110	154.250621	1177.316982	-379.445463	134.351130	1215.304368	-75.781649	175.082460	1126.026345	-345.491918	160.467469	1158.099400	-105.149499	6.379859	1244.752799	-191.040975	14.314746	1239.791340	-285.875295	60.046570	1114.816299	-31.036616	74.573206	1063.357724	-405.231357	198.306618	1020.147574	-16.159503	285.168396	1001.306361	-11.834784	348.999741	941.576087	-11.829119	302.496403	1031.951505	-25.470775	442.148236	865.701836	-30.602540	431.817188	861.998428	-139.042686	345.263565	780.532879	-8.260381	303.151925	704.205813	-36.776361	230.723052	659.833514	-44.320012	346.223285	702.932230	-88.381048	145.051170	580.828990	-61.922855	167.725782	600.733022	-147.971171	58.943738	570.020362	-108.213354	348.203123	504.251603	-98.198023	254.506889	491.179109	-33.377675	121.216296	936.434604	-423.037271	168.575744	862.576123	-422.538174	196.386141	875.189841	-440.033324	170.731970	773.490219	-416.894645	200.717508	649.947814	-394.118683	199.147419	626.125918	-294.164062	189.667642	234.710145	-394.980680	228.537898	266.484660	-324.770050	129.283507	208.255073	-356.816008	336.863641	150.807803	-414.348654	189.304188	523.299091	-422.976269	210.608413	441.320146	-406.298548	191.417841	355.551455	-409.560873	231.159349	445.233694	-373.125224	417.290148	181.467986	-344.415314	-142.553378	940.870829	-220.944863	17.959344	84.201581	-425.952872	11.168938	80.359104	-27.249454	
2	0.0100	508.761739	1391.840946	-40.616131	539.208922	1404.524349	-423.192735	504.088866	1471.689058	-226.217664	486.363691	1317.023716	-220.522096	551.066785	1132.701043	17.924856	784.497288	938.333257	-45.248152	579.595770	1139.279220	-483.401226	786.979925	938.272428	-418.827608	-20.706067	1200.132174	-240.192639	154.249601	1177.325194	-379.446315	134.320979	1215.361453	-75.818927	175.094221	1126.058853	-345.512927	160.431585	1158.161320	-105.161202	6.375991	1244.720784	-191.100221	14.297182	1239.825476	-285.922810	60.030722	1114.826844	-31.072809	74.576159	1063.360663	-405.250967	198.298990	1020.171571	-16.170289	285.139171	1001.335221	-11.818919	348.933629	941.559893	-11.821713	302.489406	1031.986017	-25.474484	442.126744	865.689834	-30.585716	431.774006	862.043397	-139.101922	345.222421	780.524718	-8.251138	303.129358	704.216523	-36.775854	230.722609	659.828464	-44.317350	346.221794	702.934730	-88.378104	145.035633	580.837290	-61.902741	167.735681	600.751580	-147.990072	58.951874	570.015612	-108.210069	348.210762	504.254757	-98.189387	254.512947	491.212752	-33.377457	121.227830	936.428523	-423.079598	168.582237	862.557094	-422.570335	196.387128	875.153050	-440.033106	170.728429	773.459256	-416.898603	200.740499	649.943565	-394.103721	199.181499	626.102375	-294.205331	189.656631	234.713456	-394.994800	228.494805	266.454584	-324.721571	129.258001	208.265658	-356.830559	336.849160	150.806831	-414.333808	189.321477	523.294864	-422.979674	210.601561	441.338203	-406.306642	191.424427	355.548477	-409.565201	231.162331	445.229922	-373.112526	417.286185	181.477181	-344.417751	-142.561054	940.866197	-220.957093	17.960678	84.192977	-425.945517	11.158396	80.502087	-27.152306	
3	0.0150	508.789446	1391.817262	-40.611385	539.189734	1404.453894	-423.207029	504.153266	1471.647856	-226.283634	486.362849	1317.041003	-220.529092	551.086120	1132.711888	18.092587	784.509994	938.350626	-45.095103	579.562474	1139.203663	-483.381742	786.941751	938.237236	-418.733129	-20.709052	1200.106926	-240.237134	154.263496	1177.340160	-379.468593	134.310607	1215.413332	-75.855431	175.127140	1126.058251	-345.530165	160.392183	1158.201229	-105.212437	6.391575	1244.684634	-191.128645	14.310085	1239.822027	-285.961698	60.008171	1114.847449	-31.107140	74.586438	1063.346184	-405.267406	198.276373	1020.209116	-16.178544	285.141452	1001.365898	-11.826909	348.966057	941.595411	-11.827077	302.480015	1032.000893	-25.476836	442.109614	865.704278	-30.570230	431.774006	862.043397	-139.101922	345.207545	780.542475	-8.234749	303.138301	704.219598	-36.784374	230.721617	659.822665	-44.321170	346.260151	702.930669	-88.355105	145.034648	580.834110	-61.913134	167.732785	600.732728	-147.983676	58.952698	570.002070	-108.217316	348.225608	504.283149	-98.192889	254.512427	491.233784	-33.385935	121.232190	936.408119	-423.109144	168.580643	862.547341	-422.593063	196.390166	875.177753	-440.099231	170.734049	773.454154	-416.916517	200.759276	649.924836	-394.094571	199.210080	626.100522	-294.197894	189.633968	234.691718	-394.981936	228.517523	266.469753	-324.753448	129.245059	208.252536	-356.837275	336.838466	150.799451	-414.331089	189.325058	523.284600	-422.980870	210.609914	441.336635	-406.306058	191.417373	355.538577	-409.564623	231.162584	445.235487	-373.106858	417.263971	181.457148	-344.408155	-142.558239	940.867881	-220.958353	17.955513	84.196807	-425.944599	11.164505	80.360035	-27.249165	
4	0.0200	508.141373	1390.930673	-42.271963	540.334059	1404.619376	-420.795384	504.165488	1471.617635	-226.273642	486.349337	1317.006578	-220.552722	551.117700	1132.721167	18.242698	784.521879	938.384336	-44.952278	579.245863	1140.630720	-487.806929	787.490848	937.543593	-416.701074	-20.780181	1199.691946	-240.051731	154.923966	1178.908757	-384.959625	134.279800	1215.788445	-76.535333	174.556938	1125.548055	-343.691330	160.367581	1158.239620	-105.234315	5.655128	1244.343166	-191.121042	14.329653	1239.820540	-286.015842	59.835638	1114.798603	-31.212049	74.614577	1063.329332	-405.277219	198.271645	1020.223583	-16.190035	285.222886	1001.599948	-11.942896	348.960164	941.629964	-11.838666	301.451127	1032.231804	-26.858934	442.134580	865.711906	-31.048064	431.788650	862.049439	-139.044221	345.236008	780.554840	-8.241014	303.761397	704.336171	-35.504848	230.673745	659.838769	-44.281157	336.638019	702.320459	-86.093698	145.031821	580.823879	-61.825252	167.761715	600.738953	-147.967443	58.987704	569.990348	-108.230250	348.256008	504.233346	-98.136333	253.689588	491.215952	-34.664031	121.315753	936.255077	-423.121326	168.679612	862.428031	-422.453978	198.354191	874.521094	-431.370005	170.963925	773.419910	-416.416649	204.664135	654.566394	-402.232765	198.338453	627.205615	-300.108590	190.291048	233.622144	-393.448772	228.454417	266.437318	-324.732057	129.208455	208.240014	-356.827641	335.947457	152.726272	-416.999069	188.488903	524.415541	-425.156400	210.361258	442.899636	-409.479451	190.814937	356.572825	-411.164838	231.022223	446.736684	-376.277595	416.253033	183.440541	-347.182622	-142.615016	940.851023	-220.953407	17.956402	84.204304	-425.956013	11.155330	80.363735	-27.262388	
